<svg xmlns="http://www.w3.org/2000/svg" width="17.18" height="17.169" viewBox="0 0 17.18 17.169">
  <g id="phone-receiver_1_" data-name="phone-receiver (1)" transform="translate(-115.908 -1178.884)">
    <g id="Group_22" data-name="Group 22" transform="translate(0 0)">
      <path id="Path_25" data-name="Path 25" d="M17.172,13.738a.83.83,0,0,1-.255.728l-2.419,2.4a1.361,1.361,0,0,1-.427.309,1.766,1.766,0,0,1-.518.164q-.018,0-.109.009t-.236.009a8.385,8.385,0,0,1-1.119-.118,8.5,8.5,0,0,1-1.891-.582A15.877,15.877,0,0,1,7.66,15.265a18.916,18.916,0,0,1-3.019-2.546,19.93,19.93,0,0,1-2.11-2.4A17.105,17.105,0,0,1,1.185,8.2,11.412,11.412,0,0,1,.421,6.435,9.36,9.36,0,0,1,.076,5.071,4.5,4.5,0,0,1,0,4.171q.018-.327.018-.364a1.768,1.768,0,0,1,.164-.518,1.363,1.363,0,0,1,.309-.427L2.913.443A.8.8,0,0,1,3.5.188a.679.679,0,0,1,.418.136,1.264,1.264,0,0,1,.309.336L6.169,4.353a.885.885,0,0,1,.091.637,1.134,1.134,0,0,1-.309.582l-.891.891A.3.3,0,0,0,5,6.581a.449.449,0,0,0-.027.136A3.284,3.284,0,0,0,5.3,7.59a8.014,8.014,0,0,0,.673,1.064A11.814,11.814,0,0,0,7.26,10.1a12.047,12.047,0,0,0,1.455,1.3,8.4,8.4,0,0,0,1.064.682,2.828,2.828,0,0,0,.655.264l.227.045a.434.434,0,0,0,.118-.027A.3.3,0,0,0,10.9,12.3l1.037-1.055a1.114,1.114,0,0,1,.764-.291.95.95,0,0,1,.491.109h.018l3.51,2.073A.915.915,0,0,1,17.172,13.738Z" transform="translate(115.908 1178.696)" fill="#00718e"/>
    </g>
  </g>
</svg>
