<svg xmlns="http://www.w3.org/2000/svg" width="19.127" height="15.028" viewBox="0 0 19.127 15.028">
  <g id="phone-receiver_1_" data-name="phone-receiver (1)" transform="translate(-115 -1179.241)">
    <g id="Group_22" data-name="Group 22" transform="translate(115 1179.241)">
      <g id="envelope" transform="translate(0 0)">
        <g id="Group_23" data-name="Group 23" transform="translate(0 0)">
          <path id="Path_26" data-name="Path 26" d="M1.836,59.452q.363.256,2.188,1.521t2.8,1.948q.107.075.454.326t.576.406q.23.155.555.347a3.221,3.221,0,0,0,.614.288,1.691,1.691,0,0,0,.534.1h.021a1.693,1.693,0,0,0,.534-.1A3.224,3.224,0,0,0,10.722,64q.325-.192.555-.347t.576-.406q.347-.251.454-.326l5-3.469a5.07,5.07,0,0,0,1.3-1.313,2.819,2.819,0,0,0,.523-1.611,1.722,1.722,0,0,0-1.708-1.708H1.708a1.524,1.524,0,0,0-1.265.555A2.154,2.154,0,0,0,0,56.762,2.493,2.493,0,0,0,.587,58.22,5.3,5.3,0,0,0,1.836,59.452Z" transform="translate(0 -54.82)" fill="#00718e"/>
          <path id="Path_27" data-name="Path 27" d="M18.06,185.366q-3.5,2.369-5.315,3.682-.608.448-.987.7a6.093,6.093,0,0,1-1.009.512,3.071,3.071,0,0,1-1.174.262H9.553a3.072,3.072,0,0,1-1.174-.262,6.1,6.1,0,0,1-1.009-.512q-.379-.251-.987-.7-1.441-1.057-5.3-3.682A5.653,5.653,0,0,1,0,184.437v8.475a1.644,1.644,0,0,0,.5,1.206,1.644,1.644,0,0,0,1.206.5H17.419a1.713,1.713,0,0,0,1.708-1.708v-8.475A5.886,5.886,0,0,1,18.06,185.366Z" transform="translate(0 -179.591)" fill="#00718e"/>
        </g>
      </g>
    </g>
  </g>
</svg>
