<svg xmlns="http://www.w3.org/2000/svg" width="13.568" height="18.427" viewBox="0 0 13.568 18.427">
  <g id="placeholder-filled-point" transform="translate(-12.883)">
    <path id="Path_97" data-name="Path 97" d="M19.667,0a6.792,6.792,0,0,0-6.784,6.784,6.617,6.617,0,0,0,.593,2.769,42.773,42.773,0,0,0,5.9,8.742.378.378,0,0,0,.572,0,42.794,42.794,0,0,0,5.9-8.742,6.614,6.614,0,0,0,.593-2.769A6.792,6.792,0,0,0,19.667,0Zm0,10.308A3.524,3.524,0,1,1,23.19,6.784,3.528,3.528,0,0,1,19.667,10.308Z" fill="#00718e"/>
  </g>
</svg>
