<svg xmlns="http://www.w3.org/2000/svg" width="5.456" height="10.092" viewBox="0 0 5.456 10.092">
  <g id="facebook-logo_1_" data-name="facebook-logo (1)" transform="translate(-22.077)">
    <path id="Path_64" data-name="Path 64" d="M27.328,0,26.019,0A2.3,2.3,0,0,0,23.6,2.484V3.629H22.283a.206.206,0,0,0-.206.206V5.494a.206.206,0,0,0,.206.206H23.6V9.887a.206.206,0,0,0,.206.206h1.717a.206.206,0,0,0,.206-.206V5.7h1.539a.206.206,0,0,0,.206-.206V3.835a.206.206,0,0,0-.206-.206H25.727V2.658c0-.467.111-.7.719-.7h.882a.206.206,0,0,0,.206-.206V.208A.206.206,0,0,0,27.328,0Z" fill="#798296"/>
  </g>
</svg>
