<svg id="instagram-logo" xmlns="http://www.w3.org/2000/svg" width="10.328" height="10.328" viewBox="0 0 10.328 10.328">
  <path id="Path_98" data-name="Path 98" d="M7.478,0H2.85A2.853,2.853,0,0,0,0,2.85V7.478a2.853,2.853,0,0,0,2.85,2.85H7.478a2.853,2.853,0,0,0,2.85-2.85V2.85A2.853,2.853,0,0,0,7.478,0ZM9.412,7.478A1.936,1.936,0,0,1,7.478,9.412H2.85A1.936,1.936,0,0,1,.916,7.478V2.85A1.936,1.936,0,0,1,2.85.916H7.478A1.936,1.936,0,0,1,9.412,2.85V7.478Z" fill="#798296"/>
  <path id="Path_99" data-name="Path 99" d="M43.629,40.97a2.661,2.661,0,1,0,2.661,2.661A2.664,2.664,0,0,0,43.629,40.97Zm0,4.406a1.745,1.745,0,1,1,1.745-1.745A1.747,1.747,0,0,1,43.629,45.376Z" transform="translate(-38.465 -38.467)" fill="#798296"/>
  <path id="Path_100" data-name="Path 100" d="M119.593,28.251a.672.672,0,1,0,.475.2A.675.675,0,0,0,119.593,28.251Z" transform="translate(-111.656 -26.525)" fill="#798296"/>
</svg>
