<svg xmlns="http://www.w3.org/2000/svg" width="11.416" height="7.848" viewBox="0 0 11.416 7.848">
  <g id="youtube" transform="translate(0 -80)">
    <g id="Group_24" data-name="Group 24" transform="translate(0 80)">
      <path id="Path_66" data-name="Path 66" d="M10.931,80.756c-.31-.551-.646-.652-1.33-.691S7.2,80,5.709,80s-3.211.019-3.894.065S.8,80.2.483,80.756A6.733,6.733,0,0,0,0,83.922v0H0a6.709,6.709,0,0,0,.483,3.16c.313.551.649.651,1.331.7s2.4.064,3.895.064,3.208-.024,3.892-.063,1.02-.146,1.33-.7a6.667,6.667,0,0,0,.484-3.16v-.006A6.681,6.681,0,0,0,10.931,80.756Zm-6.65,5.308V81.784l3.567,2.14Z" transform="translate(0 -80)" fill="#798296"/>
    </g>
  </g>
</svg>
